<svg width="22" height="46" viewBox="0 0 22 46" fill="none" xmlns="http://www.w3.org/2000/svg">
<path fill-rule="evenodd" clip-rule="evenodd" d="M11.5361 1.63134L19.869 9.96428C20.1649 10.2601 20.1649 10.7398 19.869 11.0357C19.5732 11.3315 19.0935 11.3315 18.7977 11.0357L11.7576 3.99558V42.0043L18.7977 34.9643C19.0935 34.6684 19.5732 34.6684 19.869 34.9643C20.1649 35.2601 20.1649 35.7398 19.869 36.0357L11.5357 44.369C11.397 44.5077 11.218 44.5813 11.0364 44.59C11.0243 44.5906 11.0121 44.5909 11 44.5909C10.8973 44.5909 10.7994 44.5704 10.71 44.5334C10.6207 44.4964 10.537 44.4416 10.4643 44.369L2.13101 36.0357C1.83516 35.7398 1.83516 35.2601 2.13101 34.9643C2.42686 34.6684 2.90653 34.6684 3.20238 34.9643L10.2425 42.0043V3.99558L3.20238 11.0357C2.90653 11.3315 2.42686 11.3315 2.13101 11.0357C1.83516 10.7398 1.83516 10.2601 2.13101 9.96428L10.464 1.63134M10.71 1.46654C10.7994 1.4295 10.8973 1.40906 11 1.40906C11.2084 1.40906 11.3971 1.49319 11.5341 1.62934M10.71 1.46654C10.6213 1.50324 10.5382 1.55751 10.466 1.62934L10.71 1.46654Z" fill="black"/>
<path d="M10.71 1.46654C10.7994 1.4295 10.8973 1.40906 11 1.40906C11.2084 1.40906 11.3971 1.49319 11.5341 1.62934L10.71 1.46654ZM10.71 1.46654C10.6213 1.50324 10.5382 1.55751 10.466 1.62934L10.71 1.46654ZM19.869 9.96428L11.5361 1.63134L10.464 1.63134L2.13101 9.96428C1.83516 10.2601 1.83516 10.7398 2.13101 11.0357C2.42686 11.3315 2.90653 11.3315 3.20238 11.0357L10.2425 3.99558V42.0043L3.20238 34.9643C2.90653 34.6684 2.42686 34.6684 2.13101 34.9643C1.83516 35.2601 1.83516 35.7398 2.13101 36.0357L10.4643 44.369C10.537 44.4416 10.6207 44.4964 10.71 44.5334C10.7994 44.5704 10.8973 44.5909 11 44.5909C11.0121 44.5909 11.0243 44.5906 11.0364 44.59C11.218 44.5813 11.397 44.5077 11.5357 44.369L19.869 36.0357C20.1649 35.7398 20.1649 35.2601 19.869 34.9643C19.5732 34.6684 19.0935 34.6684 18.7977 34.9643L11.7576 42.0043V3.99558L18.7977 11.0357C19.0935 11.3315 19.5732 11.3315 19.869 11.0357C20.1649 10.7398 20.1649 10.2601 19.869 9.96428Z" stroke="black" stroke-width="2" stroke-linecap="round" stroke-linejoin="round"/>
</svg>
