<svg width="50" height="50" viewBox="0 0 50 50" fill="black" xmlns="http://www.w3.org/2000/svg">
<path d="M24.7972 12.4602C23.5611 12.4602 22.3527 12.8268 21.3249 13.5135C20.2971 14.2003 19.496 15.1764 19.023 16.3184C18.5499 17.4605 18.4262 18.7171 18.6673 19.9295C18.9085 21.1419 19.5037 22.2555 20.3778 23.1296C21.2519 24.0037 22.3655 24.599 23.5779 24.8401C24.7903 25.0813 26.047 24.9575 27.189 24.4844C28.3311 24.0114 29.3072 23.2103 29.9939 22.1825C30.6807 21.1547 31.0472 19.9463 31.0472 18.7102C31.0454 17.0532 30.3863 15.4646 29.2146 14.2929C28.0429 13.1212 26.4543 12.4621 24.7972 12.4602ZM24.7972 21.8352C24.1792 21.8352 23.575 21.6519 23.0611 21.3085C22.5472 20.9652 22.1466 20.4771 21.9101 19.9061C21.6736 19.3351 21.6117 18.7067 21.7323 18.1005C21.8529 17.4944 22.1505 16.9375 22.5875 16.5005C23.0246 16.0635 23.5814 15.7658 24.1876 15.6452C24.7938 15.5247 25.4221 15.5866 25.9931 15.8231C26.5641 16.0596 27.0522 16.4601 27.3956 16.974C27.739 17.488 27.9222 18.0921 27.9222 18.7102C27.9213 19.5387 27.5917 20.333 27.0059 20.9189C26.4201 21.5047 25.6258 21.8342 24.7972 21.8352Z" fill="black"/>
<path d="M36.8072 6.69093C33.8377 3.72222 29.8739 1.95869 25.6806 1.74069C21.4874 1.5227 17.362 2.8657 14.1007 5.51049C10.8394 8.15528 8.67339 11.9144 8.0207 16.0623C7.36802 20.2101 8.27492 24.4528 10.5664 27.9713L22.3737 46.0976C22.6365 46.5009 22.9957 46.8323 23.4189 47.0617C23.8421 47.2911 24.3159 47.4112 24.7973 47.4112C25.2787 47.4112 25.7524 47.2911 26.1757 47.0617C26.5989 46.8323 26.9581 46.5009 27.2209 46.0976L39.0286 27.9713C41.1548 24.7073 42.0945 20.8117 41.69 16.9374C41.2856 13.063 39.5617 9.44541 36.8072 6.69093V6.69093ZM36.4102 26.2655L24.7973 44.0927L13.1844 26.2655C9.62967 20.8086 10.3921 13.5059 14.9971 8.9006C16.2841 7.6136 17.812 6.59269 19.4935 5.89616C21.175 5.19964 22.9773 4.84115 24.7973 4.84115C26.6174 4.84115 28.4197 5.19964 30.1012 5.89616C31.7827 6.59269 33.3106 7.6136 34.5975 8.9006C39.2026 13.5059 39.9649 20.8086 36.4102 26.2655Z" fill="black"/>
</svg>
