<svg width="77" height="77" viewBox="0 0 77 77" fill="none" xmlns="http://www.w3.org/2000/svg">
<path d="M66.1499 0.596924C63.5374 0.596924 60.9968 1.64692 59.0187 3.62505L58.7281 3.9188L56.775 2.06255L5.21245 53.625L5.01558 54.6032L1.59683 71.7907L0.621826 76.3782L5.21245 75.4032L22.4 71.9844L23.375 71.7876L74.9375 20.225L73.0812 18.3719L73.2781 18.175L73.375 17.9813C75.2745 16.0753 76.3411 13.4941 76.3411 10.8032C76.3411 8.11226 75.2745 5.53105 73.375 3.62505C71.4602 1.70041 68.8616 0.611759 66.1468 0.596924H66.1499ZM66.1499 6.75005C67.125 6.75005 68.1499 7.18755 68.9812 8.0188C70.6531 9.69067 70.6531 11.9125 68.9812 13.5875L68.6875 13.8782L63.1218 8.31255L63.4125 8.0188C64.2437 7.19067 65.1718 6.75005 66.1468 6.75005H66.1499ZM56.8687 10.8532L66.1499 20.1282L61.6562 24.7188L52.2812 15.3438L56.8687 10.8532ZM47.9843 19.8375L57.1656 29.0157L24.5468 61.7313L23.2781 56.0657L22.8875 54.1125L20.9343 53.7219L15.2687 52.4532L47.9843 19.8375ZM10.7781 57.8219L17.6125 59.3844L19.175 66.2188L12.8281 67.4907L9.5062 64.1688L10.7781 57.8219Z" fill="black"/>
</svg>
