<svg width="2.857vw" height="2.857vw" viewBox="0 0 40 40" fill="black" xmlns="http://www.w3.org/2000/svg">
<path d="M9.77031 0.6875L8.69531 1.81094L1.81094 8.69531L0.6875 9.77031L11.9188 21L4.10625 28.8125L4.00781 29.3016L2.29844 37.8953L1.81094 40.1891L4.10625 39.7016L12.7 37.9922L13.1875 37.8938L21 30.0813L32.1813 41.2641L33.2563 40.1406L40.1406 33.2563L41.2641 32.1813L30.0813 21L37.7969 13.2844C38.3946 12.6889 38.8689 11.9813 39.1925 11.2021C39.5161 10.4229 39.6827 9.58747 39.6827 8.74375C39.6827 7.90003 39.5161 7.06461 39.1925 6.28542C38.8689 5.50623 38.3946 4.7986 37.7969 4.20313C37.2025 3.60254 36.4955 3.12515 35.7164 2.79831C34.9372 2.47147 34.1012 2.3016 33.2563 2.29844C32.4111 2.30139 31.5747 2.47116 30.7953 2.79801C30.0158 3.12486 29.3086 3.60236 28.7141 4.20313L21 11.9188L9.77031 0.6875ZM9.77031 5.13125L12.7969 8.20625L10.5016 10.5031L12.7484 12.7484L15.0438 10.4531L18.7531 14.1641L14.1156 18.8031L5.08281 9.77031L9.77031 5.13125ZM33.2547 5.32656C34.0672 5.32656 34.8922 5.69219 35.5984 6.4C37.0094 7.81094 37.0094 9.62969 35.5984 11.0391L34.575 12.0641L29.9344 7.425L30.9609 6.4C31.6688 5.69219 32.4453 5.32656 33.2563 5.32656H33.2547ZM27.7391 9.62344L32.3766 14.2625L13.4813 33.1563C12.447 31.1708 10.8268 29.5517 8.84063 28.5188L27.7391 9.62344ZM27.8844 23.1969L31.5953 26.9078L29.2516 29.2516L31.4984 31.4984L33.8422 29.1547L36.8203 32.1328L32.1328 36.8203L23.1969 27.8844L27.8844 23.1969ZM6.84063 31.0094C8.71405 31.7967 10.204 33.2872 10.9906 35.1609L5.81406 36.1859L6.84063 31.0094Z" fill="black"/>
</svg>
