<svg width="92" height="88" viewBox="0 0 92 88" fill="none" xmlns="http://www.w3.org/2000/svg">
<path d="M46 14.375L54.625 31.8125L56.0625 34.9375L59.1875 35.4062L78.4375 38.1875L64.75 51.625L62.4063 53.9063L62.9688 57.0313L66.25 76.1875L49.0313 67.1562L46 65.875L43.0938 67.4062L25.875 76.3125L29 57.1562L29.5625 54.0312L27.25 51.625L13.4375 38.0313L32.6875 35.25L35.8125 34.7813L37.25 31.6563L46 14.375ZM46 0.25L31.7813 29.0625L0 33.6562L23 56.0938L17.5625 87.75L46 72.8125L74.4375 87.75L69 56.0938L92 33.6875L60.2188 29.0625L46 0.25Z" fill="black"/>
</svg>
