<svg width="88" height="76" viewBox="0 0 88 76" fill="none" xmlns="http://www.w3.org/2000/svg">
<path d="M31.5125 13C31.5125 9.68806 32.8281 6.51182 35.17 4.16995C37.5119 1.82809 40.6881 0.512451 44 0.512451C47.3119 0.512451 50.4881 1.82809 52.83 4.16995C55.1719 6.51182 56.4875 9.68806 56.4875 13C56.4875 16.3118 55.1719 19.4881 52.83 21.8299C50.4881 24.1718 47.3119 25.4875 44 25.4875C40.6881 25.4875 37.5119 24.1718 35.17 21.8299C32.8281 19.4881 31.5125 16.3118 31.5125 13ZM44 6.76245C43.1809 6.76245 42.3698 6.92379 41.613 7.23725C40.8562 7.55071 40.1686 8.01017 39.5894 8.58937C39.0102 9.16858 38.5508 9.8562 38.2373 10.613C37.9238 11.3697 37.7625 12.1808 37.7625 13C37.7625 13.8191 37.9238 14.6302 38.2373 15.3869C38.5508 16.1437 39.0102 16.8313 39.5894 17.4105C40.1686 17.9897 40.8562 18.4492 41.613 18.7626C42.3698 19.0761 43.1809 19.2375 44 19.2375C45.6543 19.2375 47.2408 18.5803 48.4106 17.4105C49.5803 16.2408 50.2375 14.6542 50.2375 13C50.2375 11.3457 49.5803 9.75913 48.4106 8.58937C47.2408 7.41961 45.6543 6.76245 44 6.76245ZM62.75 16.125C62.75 14.8938 62.9925 13.6747 63.4636 12.5373C63.9348 11.3999 64.6253 10.3664 65.4959 9.49582C66.3664 8.62528 67.3999 7.93472 68.5373 7.46358C69.6748 6.99244 70.8939 6.74995 72.125 6.74995C73.3561 6.74995 74.5752 6.99244 75.7127 7.46358C76.8501 7.93472 77.8836 8.62528 78.7541 9.49582C79.6247 10.3664 80.3152 11.3999 80.7864 12.5373C81.2575 13.6747 81.5 14.8938 81.5 16.125C81.5 18.6114 80.5123 20.9959 78.7541 22.7541C76.996 24.5122 74.6114 25.5 72.125 25.5C69.6386 25.5 67.254 24.5122 65.4959 22.7541C63.7377 20.9959 62.75 18.6114 62.75 16.125ZM72.125 13C71.2962 13 70.5013 13.3292 69.9153 13.9152C69.3292 14.5013 69 15.2961 69 16.125C69 16.9538 69.3292 17.7486 69.9153 18.3347C70.5013 18.9207 71.2962 19.25 72.125 19.25C72.9538 19.25 73.7487 18.9207 74.3347 18.3347C74.9208 17.7486 75.25 16.9538 75.25 16.125C75.25 15.2961 74.9208 14.5013 74.3347 13.9152C73.7487 13.3292 72.9538 13 72.125 13ZM15.875 6.74995C13.3886 6.74995 11.004 7.73767 9.24588 9.49582C7.48772 11.254 6.5 13.6385 6.5 16.125C6.5 18.6114 7.48772 20.9959 9.24588 22.7541C11.004 24.5122 13.3886 25.5 15.875 25.5C18.3614 25.5 20.746 24.5122 22.5041 22.7541C24.2623 20.9959 25.25 18.6114 25.25 16.125C25.25 13.6385 24.2623 11.254 22.5041 9.49582C20.746 7.73767 18.3614 6.74995 15.875 6.74995ZM12.75 16.125C12.75 15.2961 13.0792 14.5013 13.6653 13.9152C14.2513 13.3292 15.0462 13 15.875 13C16.7038 13 17.4987 13.3292 18.0847 13.9152C18.6708 14.5013 19 15.2961 19 16.125C19 16.9538 18.6708 17.7486 18.0847 18.3347C17.4987 18.9207 16.7038 19.25 15.875 19.25C15.0462 19.25 14.2513 18.9207 13.6653 18.3347C13.0792 17.7486 12.75 16.9538 12.75 16.125ZM20.675 31.75C19.575 33.649 18.9971 35.8053 19 38H6.5V53.625C6.49949 55.1796 6.8856 56.7099 7.62355 58.0782C8.3615 59.4465 9.42813 60.6098 10.7274 61.4634C12.0267 62.317 13.5179 62.8341 15.0667 62.9681C16.6155 63.1021 18.1734 62.8489 19.6 62.2312C20.0625 64.2999 20.7875 66.275 21.725 68.1187C19.3529 69.0765 16.7819 69.4372 14.2379 69.1691C11.6938 68.9011 9.25443 68.0125 7.13401 66.5814C5.0136 65.1503 3.277 63.2205 2.07671 60.9614C0.876413 58.7023 0.24915 56.1831 0.250001 53.625V38C0.250001 36.3424 0.908481 34.7526 2.08058 33.5805C3.25269 32.4084 4.8424 31.75 6.5 31.75H20.675ZM66.275 68.1187C68.6471 69.0765 71.2181 69.4372 73.7621 69.1691C76.3062 68.9011 78.7456 68.0125 80.866 66.5814C82.9864 65.1503 84.723 63.2205 85.9233 60.9614C87.1236 58.7023 87.7509 56.1831 87.75 53.625V38C87.75 36.3424 87.0915 34.7526 85.9194 33.5805C84.7473 32.4084 83.1576 31.75 81.5 31.75H67.325C68.3875 33.5875 69 35.7187 69 38H81.5V53.625C81.5005 55.1796 81.1144 56.7099 80.3765 58.0782C79.6385 59.4465 78.5719 60.6098 77.2726 61.4634C75.9733 62.317 74.4821 62.8341 72.9333 62.9681C71.3845 63.1021 69.8266 62.8489 68.4 62.2312C67.9313 64.2999 67.2125 66.275 66.275 68.1187ZM31.5 31.7437C29.8424 31.7437 28.2527 32.4022 27.0806 33.5743C25.9085 34.7464 25.25 36.3361 25.25 37.9937V56.75C25.25 61.7228 27.2254 66.4919 30.7417 70.0082C34.2581 73.5245 39.0272 75.5 44 75.5C48.9728 75.5 53.7419 73.5245 57.2583 70.0082C60.7746 66.4919 62.75 61.7228 62.75 56.75V38C62.75 36.3424 62.0915 34.7526 60.9194 33.5805C59.7473 32.4084 58.1576 31.75 56.5 31.75H31.5V31.7437ZM31.5 37.9937H56.5V56.75C56.5 60.0652 55.183 63.2446 52.8388 65.5888C50.4946 67.933 47.3152 69.25 44 69.25C40.6848 69.25 37.5054 67.933 35.1612 65.5888C32.817 63.2446 31.5 60.0652 31.5 56.75V38V37.9937Z" fill="black"/>
</svg>
